<?xml version="1.0" ?>
<!-- Uploaded to: SVG Repo, www.svgrepo.com, Generator: SVG Repo Mixer Tools -->
<svg fill="#000000" width="800px" height="800px" viewBox="0 0 32 32" xmlns="http://www.w3.org/2000/svg">
<title/>
<g data-name="Layer 2" id="Layer_2">
<path d="M8,1A1,1,0,0,0,7,2V16a2.2,2.2,0,0,0-2,2.19v.58a2.23,2.23,0,0,0,1,1.85V30a1,1,0,0,0,2,0V28H24v2a1,1,0,0,0,2,0V20.64a2.23,2.23,0,0,0,1-1.85v-.58A2.2,2.2,0,0,0,25,16V2a1,1,0,0,0-2,0V3H9V2A1,1,0,0,0,8,1ZM23,16H9V11H23ZM7,18.21A.21.21,0,0,1,7.21,18H24.79a.21.21,0,0,1,.21.21v.58a.21.21,0,0,1-.21.21H7.21A.21.21,0,0,1,7,18.79ZM8,26V21H24v5ZM23,5V9H9V5Z"/>
</g>
</svg>