<?xml version="1.0" ?>
<!-- Uploaded to: SVG Repo, www.svgrepo.com, Generator: SVG Repo Mixer Tools -->
<svg width="800px" height="800px" viewBox="0 0 64 64" xmlns="http://www.w3.org/2000/svg">
<defs>
<style>.cls-1{fill:#92d39d;}.cls-2{fill:#aaddb4;}.cls-3{fill:#f0f4f7;}.cls-4{fill:#e0e9ee;}.cls-5{fill:#748a95;}.cls-6{fill:#617880;}.cls-7{fill:#e5936b;}.cls-8{fill:#e17c46;}.cls-9{fill:#252b48;}</style>
</defs>
<g data-name="Table" id="Table-7">
<path class="cls-1" d="M36.14,16.81a2.79,2.79,0,0,0,.65-.75c.71-1.24,1.22-4.44,0-5.16a1.34,1.34,0,0,0-.66-.15,4.59,4.59,0,0,0-2.39,1.15H30.28a4.39,4.39,0,0,0-2.48-1.15,1.38,1.38,0,0,0-.57.15c-1.24.72-.73,3.92,0,5.16a2.79,2.79,0,0,0,.65.75l2.77,2.26Z" id="path37794-0-4-1-7"/>
<path class="cls-2" d="M30.25,16.81a2.61,2.61,0,0,1-.85-1.92c0-1.44,1.17-4.46,2.6-4.46s2.6,3,2.6,4.46a2.61,2.61,0,0,1-.85,1.92l-1.08,1.54Z" id="path37442-2-5-4-1"/>
<path class="cls-3" d="M26,16.81H38l-1.82,9.12-4.08,1.69-4.36-1.69Z" id="rect36788-9-2-9-1"/>
<path class="cls-4" d="M35.08,16.81l-1.82,9.12h3L38,16.81Z" id="path117262-2-5"/>
<path class="cls-5" d="M54.64,31.43V51.57a2,2,0,0,1-2,2h-10a2,2,0,0,1-2-2V31.43l7-2.13Z" id="path184262"/>
<path class="cls-6" d="M44.39,31.43v2a1.6,1.6,0,0,0,1.6,1.6h3.34a1.59,1.59,0,0,0,1.6-1.6v-2Z" id="path184264"/>
<path class="cls-6" d="M44.39,38.89v2A1.6,1.6,0,0,0,46,42.5h3.34a1.59,1.59,0,0,0,1.6-1.6v-2Z" id="path184266"/>
<path class="cls-6" d="M44.39,46.19v2a1.6,1.6,0,0,0,1.6,1.6h3.34a1.6,1.6,0,0,0,1.6-1.6v-2Z" id="path184268"/>
<path class="cls-5" d="M9.36,31.43V51.7a1.88,1.88,0,0,0,3.75,0V31.43l-1.88-1.61Z" id="path42600-4-5"/>
<path class="cls-6" d="M11.23,29.82,9.36,31.43v4.25h3.75V31.43Z" id="rect136481-9"/>
<path class="cls-7" d="M9.36,25.93H54.64A1.36,1.36,0,0,1,56,27.29v2.78a1.36,1.36,0,0,1-1.36,1.36H9.36A1.36,1.36,0,0,1,8,30.07V27.29A1.36,1.36,0,0,1,9.36,25.93Z" id="path184278"/>
<path class="cls-8" d="M50,25.93a1.36,1.36,0,0,1,1.36,1.36v2.78A1.36,1.36,0,0,1,50,31.43h4.66A1.36,1.36,0,0,0,56,30.07V27.29a1.36,1.36,0,0,0-1.36-1.36Z" id="path184280"/>
<path class="cls-9" d="M54.64,24.93H37.44L39,17a1,1,0,0,0-1-1.19h0c.64-1.73,1-4.78-.73-5.77a2.21,2.21,0,0,0-1.19-.29,4.51,4.51,0,0,0-2.1.75,2.59,2.59,0,0,0-2-1.07h0a2.63,2.63,0,0,0-2,1.07,4.35,4.35,0,0,0-2.25-.75,2.23,2.23,0,0,0-1.05.29c-1.72,1-1.36,4-.72,5.77H26A1,1,0,0,0,25,17l1.58,7.93H9.36A2.36,2.36,0,0,0,7,27.29v2.78A2.34,2.34,0,0,0,8.36,32.2V51.7a2.88,2.88,0,0,0,5.75,0V32.43H39.69V51.57a3,3,0,0,0,3,3h10a3,3,0,0,0,3-3V32.2A2.34,2.34,0,0,0,57,30.07V27.29A2.36,2.36,0,0,0,54.64,24.93ZM36.27,11.77c.41.24.39,3-.56,4h-.25a3.6,3.6,0,0,0,.14-.92A7.51,7.51,0,0,0,35,12.23C35.26,12.05,36,11.65,36.27,11.77ZM32,11.43c.38,0,1.6,1.87,1.6,3.46a1.6,1.6,0,0,1-.3.92H30.7a1.6,1.6,0,0,1-.3-.92C30.4,13.51,31.54,11.43,32,11.43Zm-4.17.32a2.67,2.67,0,0,1,1.19.48,7.91,7.91,0,0,0-.62,2.66,3.6,3.6,0,0,0,.14.92h-.25C27.34,14.73,27.31,12,27.83,11.75Zm-.65,6.06h9.64L35.4,24.93H28.6ZM9,27.29a.36.36,0,0,1,.36-.36H54.64a.36.36,0,0,1,.36.36v2.78a.35.35,0,0,1-.36.36H9.36A.35.35,0,0,1,9,30.07Zm36.39,19.9h4.54v1a.6.6,0,0,1-.6.6H46a.6.6,0,0,1-.6-.6Zm-3.7-2V39.81h1.7V40.9A2.6,2.6,0,0,0,46,43.5h3.34a2.59,2.59,0,0,0,2.6-2.6V39.81h1.71v5.38Zm3.7-5.38h4.54V40.9a.59.59,0,0,1-.6.6H46a.6.6,0,0,1-.6-.6Zm0-7.38h4.54v1a.59.59,0,0,1-.6.6H46a.6.6,0,0,1-.6-.6ZM12.11,51.7a.86.86,0,0,1-.87.87.87.87,0,0,1-.88-.87V32.43h1.75ZM43.39,32.43v1a2.61,2.61,0,0,0,2.6,2.6h3.34a2.6,2.6,0,0,0,2.6-2.6v-1h1.71v5.38h-12V32.43Zm9.25,20.14h-10a1,1,0,0,1-1-1V47.19h1.7v1a2.61,2.61,0,0,0,2.6,2.6h3.34a2.6,2.6,0,0,0,2.6-2.6v-1h1.71v4.38A1,1,0,0,1,52.64,52.57Z"/>
</g>
</svg>